<?xml version="1.0" encoding="utf-8"?>
<!-- Generator: Adobe Illustrator 26.5.0, SVG Export Plug-In . SVG Version: 6.00 Build 0)  -->
<svg version="1.1" id="Capa_1" xmlns="http://www.w3.org/2000/svg" xmlns:xlink="http://www.w3.org/1999/xlink" x="0px" y="0px"
	 viewBox="0 0 1920 1080" style="enable-background:new 0 0 1920 1080;" xml:space="preserve">
<style type="text/css">
	.st0{fill:#23A0FF;}
	.st1{clip-path:url(#SVGID_00000057833371912985478260000004057587596364068524_);}
	.st2{fill:#005BC2;}
</style>
<rect x="-8" y="1.8" class="st0" width="1928" height="1078.2"/>
<g>
	<defs>
		<rect id="SVGID_1_" x="-16.5" y="-111" width="1953" height="1302"/>
	</defs>
	<clipPath id="SVGID_00000090998008785582075420000011770794433718166177_">
		<use xlink:href="#SVGID_1_"  style="overflow:visible;"/>
	</clipPath>
	<g style="clip-path:url(#SVGID_00000090998008785582075420000011770794433718166177_);">
		<g>
			<g>
				<circle class="st2" cx="1947.6" cy="-114.3" r="45.6"/>
				<circle class="st2" cx="1947.6" cy="-29.4" r="40.4"/>
				<circle class="st2" cx="1947.6" cy="55.4" r="35.2"/>
				<circle class="st2" cx="1947.6" cy="140.3" r="29.9"/>
				<circle class="st2" cx="1947.6" cy="225.2" r="24.7"/>
				<circle class="st2" cx="1947.6" cy="310.1" r="18.2"/>
				<circle class="st2" cx="1947.6" cy="394.9" r="13"/>
				<circle class="st2" cx="1947.6" cy="479.8" r="7.8"/>
			</g>
			<circle class="st2" cx="1894.2" cy="-72.6" r="45.6"/>
			<circle class="st2" cx="1894.2" cy="12.2" r="40.4"/>
			<circle class="st2" cx="1894.2" cy="97.1" r="35.2"/>
			<circle class="st2" cx="1894.2" cy="182" r="29.9"/>
			<circle class="st2" cx="1894.2" cy="266.9" r="24.7"/>
			<circle class="st2" cx="1894.2" cy="351.7" r="18.2"/>
			<circle class="st2" cx="1894.2" cy="436.6" r="13"/>
			<g>
				<circle class="st2" cx="1840.8" cy="-114.3" r="45.6"/>
				<circle class="st2" cx="1840.8" cy="-29.4" r="40.4"/>
				<circle class="st2" cx="1840.8" cy="55.4" r="35.2"/>
				<circle class="st2" cx="1840.8" cy="140.3" r="29.9"/>
				<circle class="st2" cx="1840.8" cy="225.2" r="24.7"/>
				<circle class="st2" cx="1840.8" cy="310.1" r="18.2"/>
				<circle class="st2" cx="1840.8" cy="394.9" r="13"/>
				<circle class="st2" cx="1840.8" cy="479.8" r="7.8"/>
			</g>
			<circle class="st2" cx="1787.4" cy="-72.6" r="45.6"/>
			<circle class="st2" cx="1787.4" cy="12.2" r="40.4"/>
			<circle class="st2" cx="1787.4" cy="97.1" r="35.2"/>
			<circle class="st2" cx="1787.4" cy="182" r="29.9"/>
			<circle class="st2" cx="1787.4" cy="266.9" r="24.7"/>
			<circle class="st2" cx="1787.4" cy="351.7" r="18.2"/>
			<circle class="st2" cx="1787.4" cy="436.6" r="13"/>
			<g>
				<circle class="st2" cx="1734" cy="-114.3" r="45.6"/>
				<circle class="st2" cx="1734" cy="-29.4" r="40.4"/>
				<circle class="st2" cx="1734" cy="55.4" r="35.2"/>
				<circle class="st2" cx="1734" cy="140.3" r="29.9"/>
				<circle class="st2" cx="1734" cy="225.2" r="24.7"/>
				<circle class="st2" cx="1734" cy="310.1" r="18.2"/>
				<circle class="st2" cx="1734" cy="394.9" r="13"/>
				<circle class="st2" cx="1734" cy="479.8" r="7.8"/>
			</g>
			<circle class="st2" cx="1680.7" cy="-72.6" r="45.6"/>
			<circle class="st2" cx="1680.7" cy="12.2" r="40.4"/>
			<circle class="st2" cx="1680.7" cy="97.1" r="35.2"/>
			<circle class="st2" cx="1680.7" cy="182" r="29.9"/>
			<circle class="st2" cx="1680.7" cy="266.9" r="24.7"/>
			<circle class="st2" cx="1680.7" cy="351.7" r="18.2"/>
			<circle class="st2" cx="1680.7" cy="436.6" r="13"/>
			<g>
				<circle class="st2" cx="1627.3" cy="-114.3" r="45.6"/>
				<circle class="st2" cx="1627.3" cy="-29.4" r="40.4"/>
				<circle class="st2" cx="1627.3" cy="55.4" r="35.2"/>
				<circle class="st2" cx="1627.3" cy="140.3" r="29.9"/>
				<circle class="st2" cx="1627.3" cy="225.2" r="24.7"/>
				<circle class="st2" cx="1627.3" cy="310.1" r="18.2"/>
				<circle class="st2" cx="1627.3" cy="394.9" r="13"/>
				<circle class="st2" cx="1627.3" cy="479.8" r="7.8"/>
			</g>
			<circle class="st2" cx="1573.9" cy="-72.6" r="45.6"/>
			<circle class="st2" cx="1573.9" cy="12.2" r="40.4"/>
			<circle class="st2" cx="1573.9" cy="97.1" r="35.2"/>
			<circle class="st2" cx="1573.9" cy="182" r="29.9"/>
			<circle class="st2" cx="1573.9" cy="266.9" r="24.7"/>
			<circle class="st2" cx="1573.9" cy="351.7" r="18.2"/>
			<circle class="st2" cx="1573.9" cy="436.6" r="13"/>
			<g>
				<circle class="st2" cx="1520.5" cy="-114.3" r="45.6"/>
				<circle class="st2" cx="1520.5" cy="-29.4" r="40.4"/>
				<circle class="st2" cx="1520.5" cy="55.4" r="35.2"/>
				<circle class="st2" cx="1520.5" cy="140.3" r="29.9"/>
				<circle class="st2" cx="1520.5" cy="225.2" r="24.7"/>
				<circle class="st2" cx="1520.5" cy="310.1" r="18.2"/>
				<circle class="st2" cx="1520.5" cy="394.9" r="13"/>
				<circle class="st2" cx="1520.5" cy="479.8" r="7.8"/>
			</g>
			<circle class="st2" cx="1467.1" cy="-72.6" r="45.6"/>
			<circle class="st2" cx="1467.1" cy="12.2" r="40.4"/>
			<circle class="st2" cx="1467.1" cy="97.1" r="35.2"/>
			<circle class="st2" cx="1467.1" cy="182" r="29.9"/>
			<circle class="st2" cx="1467.1" cy="266.9" r="24.7"/>
			<circle class="st2" cx="1467.1" cy="351.7" r="18.2"/>
			<circle class="st2" cx="1467.1" cy="436.6" r="13"/>
			<g>
				<circle class="st2" cx="1413.7" cy="-114.3" r="45.6"/>
				<circle class="st2" cx="1413.7" cy="-29.4" r="40.4"/>
				<circle class="st2" cx="1413.7" cy="55.4" r="35.2"/>
				<circle class="st2" cx="1413.7" cy="140.3" r="29.9"/>
				<circle class="st2" cx="1413.7" cy="225.2" r="24.7"/>
				<circle class="st2" cx="1413.7" cy="310.1" r="18.2"/>
				<circle class="st2" cx="1413.7" cy="394.9" r="13"/>
				<circle class="st2" cx="1413.7" cy="479.8" r="7.8"/>
			</g>
			<circle class="st2" cx="1360.4" cy="-72.6" r="45.6"/>
			<circle class="st2" cx="1360.4" cy="12.2" r="40.4"/>
			<circle class="st2" cx="1360.4" cy="97.1" r="35.2"/>
			<circle class="st2" cx="1360.4" cy="182" r="29.9"/>
			<circle class="st2" cx="1360.4" cy="266.9" r="24.7"/>
			<circle class="st2" cx="1360.4" cy="351.7" r="18.2"/>
			<circle class="st2" cx="1360.4" cy="436.6" r="13"/>
			<g>
				<circle class="st2" cx="1307" cy="-114.3" r="45.6"/>
				<circle class="st2" cx="1307" cy="-29.4" r="40.4"/>
				<circle class="st2" cx="1307" cy="55.4" r="35.2"/>
				<circle class="st2" cx="1307" cy="140.3" r="29.9"/>
				<circle class="st2" cx="1307" cy="225.2" r="24.7"/>
				<circle class="st2" cx="1307" cy="310.1" r="18.2"/>
				<circle class="st2" cx="1307" cy="394.9" r="13"/>
				<circle class="st2" cx="1307" cy="479.8" r="7.8"/>
			</g>
			<circle class="st2" cx="1253.6" cy="-72.6" r="45.6"/>
			<circle class="st2" cx="1253.6" cy="12.2" r="40.4"/>
			<circle class="st2" cx="1253.6" cy="97.1" r="35.2"/>
			<circle class="st2" cx="1253.6" cy="182" r="29.9"/>
			<circle class="st2" cx="1253.6" cy="266.9" r="24.7"/>
			<circle class="st2" cx="1253.6" cy="351.7" r="18.2"/>
			<circle class="st2" cx="1253.6" cy="436.6" r="13"/>
			<g>
				<circle class="st2" cx="1200.2" cy="-114.3" r="45.6"/>
				<circle class="st2" cx="1200.2" cy="-29.4" r="40.4"/>
				<circle class="st2" cx="1200.2" cy="55.4" r="35.2"/>
				<circle class="st2" cx="1200.2" cy="140.3" r="29.9"/>
				<circle class="st2" cx="1200.2" cy="225.2" r="24.7"/>
				<circle class="st2" cx="1200.2" cy="310.1" r="18.2"/>
				<circle class="st2" cx="1200.2" cy="394.9" r="13"/>
				<circle class="st2" cx="1200.2" cy="479.8" r="7.8"/>
			</g>
			<circle class="st2" cx="1146.8" cy="-72.6" r="45.6"/>
			<circle class="st2" cx="1146.8" cy="12.2" r="40.4"/>
			<circle class="st2" cx="1146.8" cy="97.1" r="35.2"/>
			<circle class="st2" cx="1146.8" cy="182" r="29.9"/>
			<circle class="st2" cx="1146.8" cy="266.9" r="24.7"/>
			<circle class="st2" cx="1146.8" cy="351.7" r="18.2"/>
			<circle class="st2" cx="1146.8" cy="436.6" r="13"/>
			<g>
				<circle class="st2" cx="1093.5" cy="-114.3" r="45.6"/>
				<circle class="st2" cx="1093.5" cy="-29.4" r="40.4"/>
				<circle class="st2" cx="1093.5" cy="55.4" r="35.2"/>
				<circle class="st2" cx="1093.5" cy="140.3" r="29.9"/>
				<circle class="st2" cx="1093.5" cy="225.2" r="24.7"/>
				<circle class="st2" cx="1093.5" cy="310.1" r="18.2"/>
				<circle class="st2" cx="1093.5" cy="394.9" r="13"/>
				<circle class="st2" cx="1093.5" cy="479.8" r="7.8"/>
			</g>
			<circle class="st2" cx="1040.1" cy="-72.6" r="45.6"/>
			<circle class="st2" cx="1040.1" cy="12.2" r="40.4"/>
			<circle class="st2" cx="1040.1" cy="97.1" r="35.2"/>
			<circle class="st2" cx="1040.1" cy="182" r="29.9"/>
			<circle class="st2" cx="1040.1" cy="266.9" r="24.7"/>
			<circle class="st2" cx="1040.1" cy="351.7" r="18.2"/>
			<circle class="st2" cx="1040.1" cy="436.6" r="13"/>
			<g>
				<circle class="st2" cx="986.7" cy="-114.3" r="45.6"/>
				<circle class="st2" cx="986.7" cy="-29.4" r="40.4"/>
				<circle class="st2" cx="986.7" cy="55.4" r="35.2"/>
				<circle class="st2" cx="986.7" cy="140.3" r="29.9"/>
				<circle class="st2" cx="986.7" cy="225.2" r="24.7"/>
				<circle class="st2" cx="986.7" cy="310.1" r="18.2"/>
				<circle class="st2" cx="986.7" cy="394.9" r="13"/>
				<circle class="st2" cx="986.7" cy="479.8" r="7.8"/>
			</g>
			<circle class="st2" cx="933.3" cy="-72.6" r="45.6"/>
			<circle class="st2" cx="933.3" cy="12.2" r="40.4"/>
			<circle class="st2" cx="933.3" cy="97.1" r="35.2"/>
			<circle class="st2" cx="933.3" cy="182" r="29.9"/>
			<circle class="st2" cx="933.3" cy="266.9" r="24.7"/>
			<circle class="st2" cx="933.3" cy="351.7" r="18.2"/>
			<circle class="st2" cx="933.3" cy="436.6" r="13"/>
			<g>
				<circle class="st2" cx="879.9" cy="-114.3" r="45.6"/>
				<circle class="st2" cx="879.9" cy="-29.4" r="40.4"/>
				<circle class="st2" cx="879.9" cy="55.4" r="35.2"/>
				<circle class="st2" cx="879.9" cy="140.3" r="29.9"/>
				<circle class="st2" cx="879.9" cy="225.2" r="24.7"/>
				<circle class="st2" cx="879.9" cy="310.1" r="18.2"/>
				<circle class="st2" cx="879.9" cy="394.9" r="13"/>
				<circle class="st2" cx="879.9" cy="479.8" r="7.8"/>
			</g>
			<circle class="st2" cx="826.5" cy="-72.6" r="45.6"/>
			<circle class="st2" cx="826.5" cy="12.2" r="40.4"/>
			<circle class="st2" cx="826.5" cy="97.1" r="35.2"/>
			<circle class="st2" cx="826.5" cy="182" r="29.9"/>
			<circle class="st2" cx="826.5" cy="266.9" r="24.7"/>
			<circle class="st2" cx="826.5" cy="351.7" r="18.2"/>
			<circle class="st2" cx="826.5" cy="436.6" r="13"/>
			<g>
				<circle class="st2" cx="773.2" cy="-114.3" r="45.6"/>
				<circle class="st2" cx="773.2" cy="-29.4" r="40.4"/>
				<circle class="st2" cx="773.2" cy="55.4" r="35.2"/>
				<circle class="st2" cx="773.2" cy="140.3" r="29.9"/>
				<circle class="st2" cx="773.2" cy="225.2" r="24.7"/>
				<circle class="st2" cx="773.2" cy="310.1" r="18.2"/>
				<circle class="st2" cx="773.2" cy="394.9" r="13"/>
				<circle class="st2" cx="773.2" cy="479.8" r="7.8"/>
			</g>
			<circle class="st2" cx="719.8" cy="-72.6" r="45.6"/>
			<circle class="st2" cx="719.8" cy="12.2" r="40.4"/>
			<circle class="st2" cx="719.8" cy="97.1" r="35.2"/>
			<circle class="st2" cx="719.8" cy="182" r="29.9"/>
			<circle class="st2" cx="719.8" cy="266.9" r="24.7"/>
			<circle class="st2" cx="719.8" cy="351.7" r="18.2"/>
			<circle class="st2" cx="719.8" cy="436.6" r="13"/>
			<g>
				<circle class="st2" cx="666.4" cy="-114.3" r="45.6"/>
				<circle class="st2" cx="666.4" cy="-29.4" r="40.4"/>
				<circle class="st2" cx="666.4" cy="55.4" r="35.2"/>
				<circle class="st2" cx="666.4" cy="140.3" r="29.9"/>
				<circle class="st2" cx="666.4" cy="225.2" r="24.7"/>
				<circle class="st2" cx="666.4" cy="310.1" r="18.2"/>
				<circle class="st2" cx="666.4" cy="394.9" r="13"/>
				<circle class="st2" cx="666.4" cy="479.8" r="7.8"/>
			</g>
			<circle class="st2" cx="613" cy="-72.6" r="45.6"/>
			<circle class="st2" cx="613" cy="12.2" r="40.4"/>
			<circle class="st2" cx="613" cy="97.1" r="35.2"/>
			<circle class="st2" cx="613" cy="182" r="29.9"/>
			<circle class="st2" cx="613" cy="266.9" r="24.7"/>
			<circle class="st2" cx="613" cy="351.7" r="18.2"/>
			<circle class="st2" cx="613" cy="436.6" r="13"/>
			<g>
				<circle class="st2" cx="559.6" cy="-114.3" r="45.6"/>
				<circle class="st2" cx="559.6" cy="-29.4" r="40.4"/>
				<circle class="st2" cx="559.6" cy="55.4" r="35.2"/>
				<circle class="st2" cx="559.6" cy="140.3" r="29.9"/>
				<circle class="st2" cx="559.6" cy="225.2" r="24.7"/>
				<circle class="st2" cx="559.6" cy="310.1" r="18.2"/>
				<circle class="st2" cx="559.6" cy="394.9" r="13"/>
				<circle class="st2" cx="559.6" cy="479.8" r="7.8"/>
			</g>
			<circle class="st2" cx="506.3" cy="-72.6" r="45.6"/>
			<circle class="st2" cx="506.3" cy="12.2" r="40.4"/>
			<circle class="st2" cx="506.3" cy="97.1" r="35.2"/>
			<circle class="st2" cx="506.3" cy="182" r="29.9"/>
			<circle class="st2" cx="506.3" cy="266.9" r="24.7"/>
			<circle class="st2" cx="506.3" cy="351.7" r="18.2"/>
			<circle class="st2" cx="506.3" cy="436.6" r="13"/>
			<g>
				<circle class="st2" cx="452.9" cy="-114.3" r="45.6"/>
				<circle class="st2" cx="452.9" cy="-29.4" r="40.4"/>
				<circle class="st2" cx="452.9" cy="55.4" r="35.2"/>
				<circle class="st2" cx="452.9" cy="140.3" r="29.9"/>
				<circle class="st2" cx="452.9" cy="225.2" r="24.7"/>
				<circle class="st2" cx="452.9" cy="310.1" r="18.2"/>
				<circle class="st2" cx="452.9" cy="394.9" r="13"/>
				<circle class="st2" cx="452.9" cy="479.8" r="7.8"/>
			</g>
			<circle class="st2" cx="399.5" cy="-72.6" r="45.6"/>
			<circle class="st2" cx="399.5" cy="12.2" r="40.4"/>
			<circle class="st2" cx="399.5" cy="97.1" r="35.2"/>
			<circle class="st2" cx="399.5" cy="182" r="29.9"/>
			<circle class="st2" cx="399.5" cy="266.9" r="24.7"/>
			<circle class="st2" cx="399.5" cy="351.7" r="18.2"/>
			<circle class="st2" cx="399.5" cy="436.6" r="13"/>
			<g>
				<circle class="st2" cx="346.1" cy="-114.3" r="45.6"/>
				<circle class="st2" cx="346.1" cy="-29.4" r="40.4"/>
				<circle class="st2" cx="346.1" cy="55.4" r="35.2"/>
				<circle class="st2" cx="346.1" cy="140.3" r="29.9"/>
				<circle class="st2" cx="346.1" cy="225.2" r="24.7"/>
				<circle class="st2" cx="346.1" cy="310.1" r="18.2"/>
				<circle class="st2" cx="346.1" cy="394.9" r="13"/>
				<circle class="st2" cx="346.1" cy="479.8" r="7.8"/>
			</g>
			<circle class="st2" cx="292.7" cy="-72.6" r="45.6"/>
			<circle class="st2" cx="292.7" cy="12.2" r="40.4"/>
			<circle class="st2" cx="292.7" cy="97.1" r="35.2"/>
			<circle class="st2" cx="292.7" cy="182" r="29.9"/>
			<circle class="st2" cx="292.7" cy="266.9" r="24.7"/>
			<circle class="st2" cx="292.7" cy="351.7" r="18.2"/>
			<circle class="st2" cx="292.7" cy="436.6" r="13"/>
			<g>
				<circle class="st2" cx="239.3" cy="-114.3" r="45.6"/>
				<circle class="st2" cx="239.3" cy="-29.4" r="40.4"/>
				<circle class="st2" cx="239.3" cy="55.4" r="35.2"/>
				<circle class="st2" cx="239.3" cy="140.3" r="29.9"/>
				<circle class="st2" cx="239.3" cy="225.2" r="24.7"/>
				<circle class="st2" cx="239.3" cy="310.1" r="18.2"/>
				<circle class="st2" cx="239.3" cy="394.9" r="13"/>
				<circle class="st2" cx="239.3" cy="479.8" r="7.8"/>
			</g>
			<circle class="st2" cx="186" cy="-72.6" r="45.6"/>
			<circle class="st2" cx="186" cy="12.2" r="40.4"/>
			<circle class="st2" cx="186" cy="97.1" r="35.2"/>
			<circle class="st2" cx="186" cy="182" r="29.9"/>
			<circle class="st2" cx="186" cy="266.9" r="24.7"/>
			<circle class="st2" cx="186" cy="351.7" r="18.2"/>
			<circle class="st2" cx="186" cy="436.6" r="13"/>
			<g>
				<circle class="st2" cx="132.6" cy="-114.3" r="45.6"/>
				<circle class="st2" cx="132.6" cy="-29.4" r="40.4"/>
				<circle class="st2" cx="132.6" cy="55.4" r="35.2"/>
				<circle class="st2" cx="132.6" cy="140.3" r="29.9"/>
				<circle class="st2" cx="132.6" cy="225.2" r="24.7"/>
				<circle class="st2" cx="132.6" cy="310.1" r="18.2"/>
				<circle class="st2" cx="132.6" cy="394.9" r="13"/>
				<circle class="st2" cx="132.6" cy="479.8" r="7.8"/>
			</g>
			<circle class="st2" cx="79.2" cy="-72.6" r="45.6"/>
			<circle class="st2" cx="79.2" cy="12.2" r="40.4"/>
			<circle class="st2" cx="79.2" cy="97.1" r="35.2"/>
			<circle class="st2" cx="79.2" cy="182" r="29.9"/>
			<circle class="st2" cx="79.2" cy="266.9" r="24.7"/>
			<circle class="st2" cx="79.2" cy="351.7" r="18.2"/>
			<circle class="st2" cx="79.2" cy="436.6" r="13"/>
			<circle class="st2" cx="25.8" cy="-114.3" r="45.6"/>
			<circle class="st2" cx="25.8" cy="-29.4" r="40.4"/>
			<circle class="st2" cx="25.8" cy="55.4" r="35.2"/>
			<circle class="st2" cx="25.8" cy="140.3" r="29.9"/>
			<circle class="st2" cx="25.8" cy="225.2" r="24.7"/>
			<circle class="st2" cx="25.8" cy="310.1" r="18.2"/>
			<circle class="st2" cx="25.8" cy="394.9" r="13"/>
			<circle class="st2" cx="25.8" cy="479.8" r="7.8"/>
			<circle class="st2" cx="1947.6" cy="560.2" r="5.2"/>
			<circle class="st2" cx="-27.6" cy="-72.6" r="45.6"/>
			<circle class="st2" cx="-27.6" cy="12.2" r="40.4"/>
			<circle class="st2" cx="-27.6" cy="97.1" r="35.2"/>
			<circle class="st2" cx="-27.6" cy="182" r="29.9"/>
			<circle class="st2" cx="-27.6" cy="266.9" r="24.7"/>
			<circle class="st2" cx="-27.6" cy="351.7" r="18.2"/>
			<circle class="st2" cx="-27.6" cy="436.6" r="13"/>
		</g>
		<circle class="st2" cx="-27.6" cy="1116.8" r="24.7"/>
		<circle class="st2" cx="-27.6" cy="1031.9" r="18.2"/>
		<circle class="st2" cx="-27.6" cy="947.1" r="13"/>
		<circle class="st2" cx="-27.6" cy="862.2" r="7.8"/>
		<circle class="st2" cx="25.8" cy="1160" r="29.9"/>
		<circle class="st2" cx="25.8" cy="1075.1" r="24.7"/>
		<circle class="st2" cx="25.8" cy="990.3" r="18.2"/>
		<circle class="st2" cx="25.8" cy="905.4" r="13"/>
		<circle class="st2" cx="25.8" cy="820.5" r="7.8"/>
		<circle class="st2" cx="79.2" cy="1116.8" r="24.7"/>
		<circle class="st2" cx="79.2" cy="1031.9" r="18.2"/>
		<circle class="st2" cx="79.2" cy="947.1" r="13"/>
		<circle class="st2" cx="79.2" cy="862.2" r="7.8"/>
		<circle class="st2" cx="132.6" cy="1160" r="29.9"/>
		<circle class="st2" cx="132.6" cy="1075.1" r="24.7"/>
		<circle class="st2" cx="132.6" cy="990.3" r="18.2"/>
		<circle class="st2" cx="132.6" cy="905.4" r="13"/>
		<circle class="st2" cx="132.6" cy="820.5" r="7.8"/>
		<circle class="st2" cx="186" cy="1116.8" r="24.7"/>
		<circle class="st2" cx="186" cy="1031.9" r="18.2"/>
		<circle class="st2" cx="186" cy="947.1" r="13"/>
		<circle class="st2" cx="186" cy="862.2" r="7.8"/>
		<circle class="st2" cx="239.3" cy="1160" r="29.9"/>
		<circle class="st2" cx="239.3" cy="1075.1" r="24.7"/>
		<circle class="st2" cx="239.3" cy="990.3" r="18.2"/>
		<circle class="st2" cx="239.3" cy="905.4" r="13"/>
		<circle class="st2" cx="239.3" cy="820.5" r="7.8"/>
		<circle class="st2" cx="292.7" cy="1116.8" r="24.7"/>
		<circle class="st2" cx="292.7" cy="1031.9" r="18.2"/>
		<circle class="st2" cx="292.7" cy="947.1" r="13"/>
		<circle class="st2" cx="292.7" cy="862.2" r="7.8"/>
		<circle class="st2" cx="346.1" cy="1160" r="29.9"/>
		<circle class="st2" cx="346.1" cy="1075.1" r="24.7"/>
		<circle class="st2" cx="346.1" cy="990.3" r="18.2"/>
		<circle class="st2" cx="346.1" cy="905.4" r="13"/>
		<circle class="st2" cx="346.1" cy="820.5" r="7.8"/>
		<circle class="st2" cx="399.5" cy="1116.8" r="24.7"/>
		<circle class="st2" cx="399.5" cy="1031.9" r="18.2"/>
		<circle class="st2" cx="399.5" cy="947.1" r="13"/>
		<circle class="st2" cx="399.5" cy="862.2" r="7.8"/>
		<circle class="st2" cx="452.9" cy="1160" r="29.9"/>
		<circle class="st2" cx="452.9" cy="1075.1" r="24.7"/>
		<circle class="st2" cx="452.9" cy="990.3" r="18.2"/>
		<circle class="st2" cx="452.9" cy="905.4" r="13"/>
		<circle class="st2" cx="452.9" cy="820.5" r="7.8"/>
		<circle class="st2" cx="506.3" cy="1116.8" r="24.7"/>
		<circle class="st2" cx="506.3" cy="1031.9" r="18.2"/>
		<circle class="st2" cx="506.3" cy="947.1" r="13"/>
		<circle class="st2" cx="506.3" cy="862.2" r="7.8"/>
		<circle class="st2" cx="559.6" cy="1160" r="29.9"/>
		<circle class="st2" cx="559.6" cy="1075.1" r="24.7"/>
		<circle class="st2" cx="559.6" cy="990.3" r="18.2"/>
		<circle class="st2" cx="559.6" cy="905.4" r="13"/>
		<circle class="st2" cx="559.6" cy="820.5" r="7.8"/>
		<circle class="st2" cx="613" cy="1116.8" r="24.7"/>
		<circle class="st2" cx="613" cy="1031.9" r="18.2"/>
		<circle class="st2" cx="613" cy="947.1" r="13"/>
		<circle class="st2" cx="613" cy="862.2" r="7.8"/>
		<circle class="st2" cx="666.4" cy="1160" r="29.9"/>
		<circle class="st2" cx="666.4" cy="1075.1" r="24.7"/>
		<circle class="st2" cx="666.4" cy="990.3" r="18.2"/>
		<circle class="st2" cx="666.4" cy="905.4" r="13"/>
		<circle class="st2" cx="666.4" cy="820.5" r="7.8"/>
		<circle class="st2" cx="719.8" cy="1116.8" r="24.7"/>
		<circle class="st2" cx="719.8" cy="1031.9" r="18.2"/>
		<circle class="st2" cx="719.8" cy="947.1" r="13"/>
		<circle class="st2" cx="719.8" cy="862.2" r="7.8"/>
		<circle class="st2" cx="773.2" cy="1160" r="29.9"/>
		<circle class="st2" cx="773.2" cy="1075.1" r="24.7"/>
		<circle class="st2" cx="773.2" cy="990.3" r="18.2"/>
		<circle class="st2" cx="773.2" cy="905.4" r="13"/>
		<circle class="st2" cx="773.2" cy="820.5" r="7.8"/>
		<circle class="st2" cx="826.5" cy="1116.8" r="24.7"/>
		<circle class="st2" cx="826.5" cy="1031.9" r="18.2"/>
		<circle class="st2" cx="826.5" cy="947.1" r="13"/>
		<circle class="st2" cx="826.5" cy="862.2" r="7.8"/>
		<circle class="st2" cx="879.9" cy="1160" r="29.9"/>
		<circle class="st2" cx="879.9" cy="1075.1" r="24.7"/>
		<circle class="st2" cx="879.9" cy="990.3" r="18.2"/>
		<circle class="st2" cx="879.9" cy="905.4" r="13"/>
		<circle class="st2" cx="879.9" cy="820.5" r="7.8"/>
		<circle class="st2" cx="933.3" cy="1116.8" r="24.7"/>
		<circle class="st2" cx="933.3" cy="1031.9" r="18.2"/>
		<circle class="st2" cx="933.3" cy="947.1" r="13"/>
		<circle class="st2" cx="933.3" cy="862.2" r="7.8"/>
		<circle class="st2" cx="986.7" cy="1160" r="29.9"/>
		<circle class="st2" cx="986.7" cy="1075.1" r="24.7"/>
		<circle class="st2" cx="986.7" cy="990.3" r="18.2"/>
		<circle class="st2" cx="986.7" cy="905.4" r="13"/>
		<circle class="st2" cx="986.7" cy="820.5" r="7.8"/>
		<circle class="st2" cx="1040.1" cy="1116.8" r="24.7"/>
		<circle class="st2" cx="1040.1" cy="1031.9" r="18.2"/>
		<circle class="st2" cx="1040.1" cy="947.1" r="13"/>
		<circle class="st2" cx="1040.1" cy="862.2" r="7.8"/>
		<circle class="st2" cx="1093.5" cy="1160" r="29.9"/>
		<circle class="st2" cx="1093.5" cy="1075.1" r="24.7"/>
		<circle class="st2" cx="1093.5" cy="990.3" r="18.2"/>
		<circle class="st2" cx="1093.5" cy="905.4" r="13"/>
		<circle class="st2" cx="1093.5" cy="820.5" r="7.8"/>
		<circle class="st2" cx="1146.8" cy="1116.8" r="24.7"/>
		<circle class="st2" cx="1146.8" cy="1031.9" r="18.2"/>
		<circle class="st2" cx="1146.8" cy="947.1" r="13"/>
		<circle class="st2" cx="1146.8" cy="862.2" r="7.8"/>
		<circle class="st2" cx="1200.2" cy="1160" r="29.9"/>
		<circle class="st2" cx="1200.2" cy="1075.1" r="24.7"/>
		<circle class="st2" cx="1200.2" cy="990.3" r="18.2"/>
		<circle class="st2" cx="1200.2" cy="905.4" r="13"/>
		<circle class="st2" cx="1200.2" cy="820.5" r="7.8"/>
		<circle class="st2" cx="1253.6" cy="1116.8" r="24.7"/>
		<circle class="st2" cx="1253.6" cy="1031.9" r="18.2"/>
		<circle class="st2" cx="1253.6" cy="947.1" r="13"/>
		<circle class="st2" cx="1253.6" cy="862.2" r="7.8"/>
		<circle class="st2" cx="1307" cy="1160" r="29.9"/>
		<circle class="st2" cx="1307" cy="1075.1" r="24.7"/>
		<circle class="st2" cx="1307" cy="990.3" r="18.2"/>
		<circle class="st2" cx="1307" cy="905.4" r="13"/>
		<circle class="st2" cx="1307" cy="820.5" r="7.8"/>
		<circle class="st2" cx="1360.4" cy="1116.8" r="24.7"/>
		<circle class="st2" cx="1360.4" cy="1031.9" r="18.2"/>
		<circle class="st2" cx="1360.4" cy="947.1" r="13"/>
		<circle class="st2" cx="1360.4" cy="862.2" r="7.8"/>
		<circle class="st2" cx="1413.7" cy="1160" r="29.9"/>
		<circle class="st2" cx="1413.7" cy="1075.1" r="24.7"/>
		<circle class="st2" cx="1413.7" cy="990.3" r="18.2"/>
		<circle class="st2" cx="1413.7" cy="905.4" r="13"/>
		<circle class="st2" cx="1413.7" cy="820.5" r="7.8"/>
		<circle class="st2" cx="1467.1" cy="1116.8" r="24.7"/>
		<circle class="st2" cx="1467.1" cy="1031.9" r="18.2"/>
		<circle class="st2" cx="1467.1" cy="947.1" r="13"/>
		<circle class="st2" cx="1467.1" cy="862.2" r="7.8"/>
		<circle class="st2" cx="1520.5" cy="1160" r="29.9"/>
		<circle class="st2" cx="1520.5" cy="1075.1" r="24.7"/>
		<circle class="st2" cx="1520.5" cy="990.3" r="18.2"/>
		<circle class="st2" cx="1520.5" cy="905.4" r="13"/>
		<circle class="st2" cx="1520.5" cy="820.5" r="7.8"/>
		<circle class="st2" cx="1573.9" cy="1116.8" r="24.7"/>
		<circle class="st2" cx="1573.9" cy="1031.9" r="18.2"/>
		<circle class="st2" cx="1573.9" cy="947.1" r="13"/>
		<circle class="st2" cx="1573.9" cy="862.2" r="7.8"/>
		<circle class="st2" cx="1627.3" cy="1160" r="29.9"/>
		<circle class="st2" cx="1627.3" cy="1075.1" r="24.7"/>
		<circle class="st2" cx="1627.3" cy="990.3" r="18.2"/>
		<circle class="st2" cx="1627.3" cy="905.4" r="13"/>
		<circle class="st2" cx="1627.3" cy="820.5" r="7.8"/>
		<circle class="st2" cx="1680.7" cy="1116.8" r="24.7"/>
		<circle class="st2" cx="1680.7" cy="1031.9" r="18.2"/>
		<circle class="st2" cx="1680.7" cy="947.1" r="13"/>
		<circle class="st2" cx="1680.7" cy="862.2" r="7.8"/>
		<circle class="st2" cx="1734" cy="1160" r="29.9"/>
		<circle class="st2" cx="1734" cy="1075.1" r="24.7"/>
		<circle class="st2" cx="1734" cy="990.3" r="18.2"/>
		<circle class="st2" cx="1734" cy="905.4" r="13"/>
		<circle class="st2" cx="1734" cy="820.5" r="7.8"/>
		<circle class="st2" cx="1787.4" cy="1116.8" r="24.7"/>
		<circle class="st2" cx="1787.4" cy="1031.9" r="18.2"/>
		<circle class="st2" cx="1787.4" cy="947.1" r="13"/>
		<circle class="st2" cx="1787.4" cy="862.2" r="7.8"/>
		<circle class="st2" cx="1840.8" cy="1160" r="29.9"/>
		<circle class="st2" cx="1840.8" cy="1075.1" r="24.7"/>
		<circle class="st2" cx="1840.8" cy="990.3" r="18.2"/>
		<circle class="st2" cx="1840.8" cy="905.4" r="13"/>
		<circle class="st2" cx="1840.8" cy="820.5" r="7.8"/>
		<circle class="st2" cx="1894.2" cy="1116.8" r="24.7"/>
		<circle class="st2" cx="1894.2" cy="1031.9" r="18.2"/>
		<circle class="st2" cx="1894.2" cy="947.1" r="13"/>
		<circle class="st2" cx="1894.2" cy="862.2" r="7.8"/>
		<circle class="st2" cx="1894.2" cy="781.8" r="5.2"/>
		<circle class="st2" cx="1787.4" cy="781.8" r="5.2"/>
		<circle class="st2" cx="1680.7" cy="781.8" r="5.2"/>
		<circle class="st2" cx="1573.9" cy="781.8" r="5.2"/>
		<circle class="st2" cx="1467.1" cy="781.8" r="5.2"/>
		<circle class="st2" cx="1360.4" cy="781.8" r="5.2"/>
		<circle class="st2" cx="1253.6" cy="781.8" r="5.2"/>
		<circle class="st2" cx="1146.8" cy="781.8" r="5.2"/>
		<circle class="st2" cx="1040.1" cy="781.8" r="5.2"/>
		<circle class="st2" cx="933.3" cy="781.8" r="5.2"/>
		<circle class="st2" cx="826.5" cy="781.8" r="5.2"/>
		<circle class="st2" cx="719.8" cy="781.8" r="5.2"/>
		<circle class="st2" cx="613" cy="781.8" r="5.2"/>
		<circle class="st2" cx="506.3" cy="781.8" r="5.2"/>
		<circle class="st2" cx="399.5" cy="781.8" r="5.2"/>
		<circle class="st2" cx="292.7" cy="781.8" r="5.2"/>
		<circle class="st2" cx="186" cy="781.8" r="5.2"/>
		<circle class="st2" cx="79.2" cy="781.8" r="5.2"/>
		<circle class="st2" cx="-27.6" cy="781.8" r="5.2"/>
		<circle class="st2" cx="1947.6" cy="1160" r="29.9"/>
		<circle class="st2" cx="1947.6" cy="1075.1" r="24.7"/>
		<circle class="st2" cx="1947.6" cy="990.3" r="18.2"/>
		<circle class="st2" cx="1947.6" cy="905.4" r="13"/>
		<circle class="st2" cx="1947.6" cy="820.5" r="7.8"/>
	</g>
</g>
</svg>
